<?xml version="1.0" standalone="no"?>
<!DOCTYPE svg PUBLIC "-//W3C//DTD SVG 20010904//EN"
 "http://www.w3.org/TR/2001/REC-SVG-20010904/DTD/svg10.dtd">
<svg version="1.0" xmlns="http://www.w3.org/2000/svg"
 width="512.000000pt" height="512.000000pt" viewBox="0 0 512.000000 512.000000"
 preserveAspectRatio="xMidYMid meet">

<g transform="translate(0.000000,512.000000) scale(0.100000,-0.100000)"
fill="#000000" stroke="none">
<path d="M1905 5039 c-399 -48 -805 -229 -1118 -498 -386 -331 -651 -835 -706
-1343 -14 -123 -14 -346 -1 -463 111 -964 870 -1728 1830 -1839 287 -34 597
-6 862 78 l48 15 10 -42 c86 -332 281 -585 568 -735 683 -357 1504 53 1627
813 69 425 -121 861 -480 1102 -108 73 -230 126 -372 163 l-42 10 15 48 c31
98 65 261 79 382 75 625 -146 1258 -597 1710 -306 308 -684 503 -1133 585
-108 20 -470 28 -590 14z m575 -178 c526 -91 988 -394 1283 -841 313 -474 400
-1086 232 -1619 l-25 -79 -83 -4 c-45 -2 -84 -2 -85 -1 -2 1 5 27 17 57 25 66
64 222 82 326 18 99 18 421 0 520 -34 198 -89 366 -171 530 -392 784 -1308
1158 -2139 874 -599 -205 -1044 -722 -1163 -1352 -18 -95 -22 -153 -22 -312 0
-228 19 -353 83 -549 301 -916 1297 -1423 2210 -1125 57 19 105 33 105 32 1
-2 0 -40 -2 -85 l-4 -83 -79 -25 c-534 -168 -1145 -81 -1619 232 -767 506
-1069 1470 -729 2323 262 658 869 1118 1585 1200 122 14 392 4 524 -19z m-257
-315 c103 -43 128 -177 48 -257 -65 -65 -157 -65 -222 0 -124 123 13 325 174
257z m-370 -63 c-19 -63 -12 -147 20 -215 l24 -54 -62 -16 c-96 -26 -212 -73
-298 -122 -67 -38 -79 -42 -84 -28 -35 112 -82 170 -177 219 -17 9 -14 13 25
40 108 74 301 159 454 199 121 31 116 32 98 -23z m717 22 c160 -43 331 -119
448 -198 l44 -29 -51 -29 c-57 -33 -112 -102 -132 -164 -7 -22 -14 -43 -16
-47 -2 -3 -38 14 -80 38 -86 49 -202 97 -298 122 l-62 16 24 54 c32 68 39 152
20 215 -11 33 -12 47 -4 47 7 0 55 -11 107 -25z m-1360 -387 c57 -30 82 -65
88 -126 14 -151 -184 -235 -276 -117 -85 108 -15 258 123 264 12 1 41 -9 65
-21z m2036 1 c81 -39 112 -130 72 -209 -30 -58 -77 -90 -135 -90 -93 0 -153
55 -161 145 -11 128 109 210 224 154z m-911 -54 c467 -75 826 -424 927 -900
16 -77 16 -333 0 -410 -98 -461 -436 -799 -897 -897 -77 -16 -333 -16 -410 0
-348 74 -626 281 -783 580 -173 331 -175 697 -7 1032 214 427 696 672 1170
595z m-1447 -278 c36 -54 95 -92 184 -120 14 -5 10 -17 -28 -84 -49 -86 -96
-202 -122 -298 l-16 -62 -54 24 c-68 32 -152 39 -214 20 -27 -8 -48 -12 -48
-9 0 22 43 179 66 242 32 89 115 258 157 319 27 39 31 42 40 25 5 -11 21 -36
35 -57z m2691 -97 c66 -128 103 -226 132 -345 10 -44 19 -83 19 -87 0 -3 -21
1 -47 9 -63 19 -147 12 -216 -20 l-54 -24 -17 66 c-27 100 -71 207 -120 294
-28 49 -40 79 -33 82 60 18 83 28 121 54 41 28 106 111 106 135 1 23 53 -54
109 -164z m-2796 -584 c103 -43 128 -177 48 -257 -112 -113 -296 -12 -267 146
18 94 128 150 219 111z m2880 0 c103 -43 128 -177 48 -257 -112 -113 -296 -12
-267 146 18 94 128 150 219 111z m-2683 -640 c17 -39 48 -101 69 -138 22 -37
36 -69 33 -71 -4 -3 -20 -7 -37 -11 -69 -17 -147 -84 -187 -160 l-15 -29 -30
44 c-42 61 -125 230 -157 319 -23 63 -66 220 -66 242 0 3 21 -1 48 -9 62 -19
146 -12 214 19 l53 24 23 -80 c12 -43 36 -111 52 -150z m2598 177 c35 -3 75 1
105 11 l49 14 -7 -41 c-10 -60 -73 -254 -101 -309 -19 -37 -31 -49 -61 -58
-21 -7 -68 -26 -105 -42 l-67 -31 -63 31 c-35 17 -71 33 -80 36 -14 4 -10 16
28 83 49 87 93 194 120 294 l17 66 54 -24 c30 -14 80 -27 111 -30z m577 -513
c183 -49 305 -120 440 -255 136 -137 206 -259 256 -445 30 -110 33 -337 6
-444 -47 -186 -125 -324 -262 -461 -179 -178 -373 -267 -620 -281 -288 -17
-560 93 -762 310 -106 114 -180 251 -225 416 -29 109 -32 334 -5 444 44 178
128 327 257 457 151 153 330 246 535 279 96 15 288 5 380 -20z m-2935 -51 c93
-53 107 -193 25 -257 -93 -74 -225 -32 -256 81 -36 133 109 244 231 176z
m2004 15 c11 -4 1 -18 -40 -54 -31 -27 -77 -73 -104 -104 -52 -60 -60 -58 -60
13 0 94 118 178 204 145z m-1530 -325 c43 -17 106 -38 141 -47 l62 -16 -26
-55 c-21 -46 -26 -70 -26 -136 1 -44 6 -90 13 -102 16 -30 12 -30 -108 2 -160
43 -331 119 -449 198 -39 27 -42 31 -25 40 95 49 142 107 177 219 5 14 17 10
84 -28 43 -24 113 -58 157 -75z m1176 94 c0 -8 14 -42 31 -74 l32 -59 -31 -68
c-16 -37 -35 -84 -42 -105 -9 -30 -21 -42 -58 -61 -54 -27 -247 -90 -309 -100
l-41 -8 14 49 c20 63 13 147 -19 216 l-24 54 95 27 c90 25 241 91 307 134 32
21 45 20 45 -5z m-647 -197 c103 -43 128 -177 48 -257 -65 -65 -157 -65 -222
0 -124 123 13 325 174 257z"/>
<path d="M2017 3909 c-128 -19 -291 -83 -406 -161 -82 -55 -222 -207 -272
-293 -103 -179 -134 -295 -133 -495 1 -205 39 -345 142 -510 58 -94 195 -233
288 -293 164 -106 324 -152 529 -152 195 1 314 33 490 134 109 63 263 217 326
326 102 177 133 294 133 495 0 201 -32 321 -133 495 -62 107 -208 254 -320
323 -189 116 -423 163 -644 131z m333 -172 c100 -28 168 -57 243 -107 427
-278 490 -872 132 -1233 -355 -360 -957 -297 -1235 130 -89 136 -125 259 -125
433 0 174 36 297 124 432 119 182 304 308 521 354 80 17 262 12 340 -9z"/>
<path d="M3775 1986 c-218 -43 -405 -168 -525 -353 -89 -136 -125 -259 -125
-433 0 -174 36 -297 124 -432 243 -371 737 -478 1104 -238 427 278 490 875
131 1234 -103 104 -222 171 -374 212 -78 22 -250 26 -335 10z m279 -161 c367
-78 594 -474 473 -824 -36 -102 -81 -174 -157 -251 -254 -253 -647 -253 -901
1 -251 249 -251 648 0 900 156 155 371 219 585 174z"/>
<path d="M3801 1664 c-253 -68 -410 -331 -346 -579 67 -256 329 -415 580 -350
237 62 393 291 358 529 -40 283 -322 473 -592 400z m254 -175 c63 -30 123 -90
155 -154 20 -41 25 -65 25 -135 -1 -77 -4 -91 -34 -148 -38 -70 -70 -101 -145
-140 -43 -22 -64 -26 -136 -26 -70 -1 -94 4 -135 24 -260 128 -238 495 35 594
63 23 170 16 235 -15z"/>
</g>
</svg>
